<svg aria-hidden="true" style="position: absolute; width: 0; height: 0; overflow: hidden;" version="1.1" xmlns="http://www.w3.org/2000/svg" xmlns:xlink="http://www.w3.org/1999/xlink">
  <defs>
    <symbol id="icon-logo" viewBox="0 0 79 32">
      <path fill="#f9f9f9" d="M0 20.706V0h24.264c3.299 0 6.512 1.051 9.173 3.001a11.704 11.704 0 0 1 3.693 4.503l2.807 6.034a40.83 40.83 0 0 1 4.055-7.536l.139-.204c.463-.679.992-1.31 1.58-1.884l1.196-1.168A8.113 8.113 0 0 1 49.626.991l.103-.04A13.854 13.854 0 0 1 54.776 0h24.283v20.706H0zm0 3.765h79.059V32H0v-7.529z" style="fill:var(--color1, #f9f9f9)"/>
    </symbol>
    <symbol id="icon-arrow-right" viewBox="0 0 32 32">
      <path fill="none" stroke="#e3e3e3" stroke-linecap="round" stroke-linejoin="round" stroke-width="2.667" d="M18.667 22.667 25.334 16l-6.667-6.667M25.333 16H6.666" style="stroke:var(--color2, #e3e3e3)"/>
    </symbol>
    <symbol id="icon-btn-on" viewBox="0 0 32 32">
      <path fill="#e90516" d="M28.8 16c0 7.069-5.731 12.8-12.8 12.8S3.2 23.069 3.2 16C3.2 8.931 8.931 3.2 16 3.2S28.8 8.931 28.8 16z" style="fill:var(--color3, #e90516)"/>
      <path fill="none" stroke="#f9f9f9" stroke-width="1.28" d="M31.36 16c0 8.483-6.877 15.36-15.36 15.36S.64 24.483.64 16 7.517.64 16 .64 31.36 7.517 31.36 16z" style="stroke:var(--color1, #f9f9f9)"/>
    </symbol>
    <symbol id="icon-btn-off" viewBox="0 0 32 32">
      <path fill="none" stroke="#f9f9f9" stroke-width="1.28" d="M31.36 16c0 8.483-6.877 15.36-15.36 15.36S.64 24.483.64 16 7.517.64 16 .64 31.36 7.517 31.36 16z" style="stroke:var(--color1, #f9f9f9)"/>
      <path fill="#e90516" d="M11.52 9.6h8.96c1.06 0 1.92.86 1.92 1.92v8.96c0 1.06-.86 1.92-1.92 1.92h-8.96a1.92 1.92 0 0 1-1.92-1.92v-8.96c0-1.06.86-1.92 1.92-1.92z" style="fill:var(--color3, #e90516)"/>
    </symbol>
    <symbol id="icon-close" viewBox="0 0 32 32">
      <path fill="none" stroke="" stroke-linecap="round" stroke-linejoin="round" stroke-width="2.909" d="M24 8 8 24M8 8l16 16" />
    </symbol>
    <symbol id="icon-chevron-up" viewBox="0 0 32 32">
      <path fill="none" stroke="#f9f9f9" stroke-linecap="round" stroke-linejoin="round" stroke-width="3" d="m24 20-8-8-8 8" style="stroke:var(--color1, #f9f9f9)"/>
    </symbol>
    <symbol id="icon-chevron-down" viewBox="0 0 32 32">
      <path fill="none" stroke="#f9f9f9" stroke-linecap="round" stroke-linejoin="round" stroke-width="3" d="m8 12 8 8 8-8" style="stroke:var(--color1, #f9f9f9)"/>
    </symbol>
    <symbol id="icon-btn-right" viewBox="0 0 32 32">
      <path fill="none" stroke="#f9f9f9" stroke-width=".8" d="M31.6 16c0 8.616-6.984 15.6-15.6 15.6S.4 24.616.4 16 7.384.4 16 .4 31.6 7.384 31.6 16z" style="stroke:var(--color1, #f9f9f9)"/>
      <path fill="none" stroke="#f9f9f9" stroke-linecap="round" stroke-linejoin="round" stroke-width="1.2" d="m14 12 4 4-4 4" style="stroke:var(--color1, #f9f9f9)"/>
    </symbol>
    <symbol id="icon-btn-left" viewBox="0 0 32 32">
      <path fill="none" stroke="#f9f9f9" stroke-width=".8" d="M31.6 16c0 8.616-6.984 15.6-15.6 15.6S.4 24.616.4 16 7.384.4 16 .4 31.6 7.384 31.6 16z" style="stroke:var(--color1, #f9f9f9)"/>
      <path fill="none" stroke="#f9f9f9" stroke-linecap="round" stroke-linejoin="round" stroke-width="1.2" d="m18 20-4-4 4-4" style="stroke:var(--color1, #f9f9f9)"/>
    </symbol>
    <symbol id="icon-pie-chart" viewBox="0 0 32 32">
      <path fill="none" stroke-linecap="round" stroke-linejoin="round" stroke-width="3.2" d="M22.933 18.667c.369 0 .554 0 .704.082a.708.708 0 0 1 .293.324c.067.157.05.324.016.659a10.672 10.672 0 0 1-12.694 9.397 10.66 10.66 0 0 1-8.381-8.381 10.666 10.666 0 0 1 9.397-12.694c.334-.034.502-.05.659.016.13.055.257.17.324.293.082.15.082.334.082.704V17.6c0 .373 0 .56.073.703a.665.665 0 0 0 .291.291c.143.073.329.073.703.073h8.533z" opacity=".8"/>
      <path fill="none" stroke-linecap="round" stroke-linejoin="round" stroke-width="3.2" d="M18.667 3.733c0-.369 0-.554.082-.704a.713.713 0 0 1 .324-.293c.157-.067.324-.05.659-.016a10.67 10.67 0 0 1 9.549 9.549c.034.334.05.502-.016.659a.704.704 0 0 1-.293.324c-.15.082-.334.082-.704.082h-8.533c-.373 0-.56 0-.703-.073a.665.665 0 0 1-.291-.291c-.073-.143-.073-.329-.073-.703V3.734z"/>
    </symbol>
    <symbol id="icon-eye" viewBox="0 0 32 32">
      <path fill="none" stroke="#f9f9f9" stroke-linecap="round" stroke-linejoin="round" stroke-width="2.08" d="M1.333 16S6.666 5.333 16 5.333 30.667 16 30.667 16 25.334 26.667 16 26.667C6.667 26.667 1.333 16 1.333 16z" style="stroke:var(--color1, #f9f9f9)"/>
      <path fill="none" stroke="#f9f9f9" stroke-linecap="round" stroke-linejoin="round" stroke-width="2.08" d="M16 20a4 4 0 1 0 0-8 4 4 0 0 0 0 8z" style="stroke:var(--color1, #f9f9f9)"/>
    </symbol>
    <symbol id="icon-eye-off" viewBox="0 0 32 32">
      <path fill="none" stroke="#f9f9f9" stroke-linecap="round" stroke-linejoin="round" stroke-width="2.08" d="M23.92 23.92A13.43 13.43 0 0 1 16 26.667C6.667 26.667 1.333 16 1.333 16A24.605 24.605 0 0 1 8.08 8.08m5.12-2.427a12.161 12.161 0 0 1 2.8-.32C25.333 5.333 30.667 16 30.667 16a24.646 24.646 0 0 1-2.88 4.253m-8.96-1.426a4.003 4.003 0 0 1-5.755.102 3.994 3.994 0 0 1-.824-4.457c.219-.491.534-.932.927-1.298M1.333 1.333l29.333 29.333" style="stroke:var(--color1, #f9f9f9)"/>
    </symbol>
    <symbol id="icon-error" viewBox="0 0 32 32">
      <path fill="#e90516" d="M16 29a13 13 0 1 1 0-25.998A13 13 0 0 1 16 29zm0 3a16.003 16.003 0 0 0 16-16A15.997 15.997 0 0 0 16 0 15.997 15.997 0 0 0 0 16a16.003 16.003 0 0 0 16 16zm2-10a2 2 0 1 1-4.001-.001A2 2 0 0 1 18 22zm-.5-12.5A1.503 1.503 0 0 0 16 8a1.503 1.503 0 0 0-1.5 1.5v7A1.503 1.503 0 0 0 16 18a1.503 1.503 0 0 0 1.5-1.5v-7z" style="fill:var(--color3, #e90516)"/>
    </symbol>
    <symbol id="icon-check" viewBox="0 0 32 32">
      <path fill="#30b94d" d="m15 21.76-5.4-6.081 1.8-2.026 3.601 4.052L22.2 9.6l1.801 2.027-9 10.133z" style="fill:var(--color4, #30b94d)"/>
      <path fill="#30b94d" d="M0 16c0 8.836 7.164 16 16 16s16-7.164 16-16S24.836 0 16 0 0 7.164 0 16zm16 13.091c-1.719 0-3.421-.339-5.01-.996s-3.031-1.622-4.247-2.838A13.094 13.094 0 0 1 3.905 10.99a13.084 13.084 0 0 1 7.085-7.085A13.09 13.09 0 1 1 16 29.09z" style="fill:var(--color4, #30b94d)"/>
    </symbol>
    <symbol id="icon-menu" viewBox="0 0 28 28">
      <path d="M3.5 14H24.5M3.5 7H24.5M10.5 21H24.5" stroke="#F9F9F9" stroke-width="2" stroke-linecap="round" stroke-linejoin="round" />
    </symbol>
    <symbol id="icon-hourglass" viewBox="0 0 32 32">
      <path fill="none" stroke-linecap="round" stroke-linejoin="round" stroke-width="3.2" d="m16 16-5.697-4.748c-.846-.705-1.27-1.058-1.574-1.49a3.978 3.978 0 0 1-.591-1.263c-.137-.511-.137-1.061-.137-2.163V2.667M16 16l5.697-4.748c.847-.705 1.27-1.058 1.574-1.49.27-.383.47-.811.592-1.263C24 7.988 24 7.438 24 6.336V2.667M16 16l-5.697 4.748c-.846.705-1.27 1.058-1.574 1.49-.27.383-.47.811-.591 1.263-.137.511-.137 1.061-.137 2.163v3.669M16 16l5.697 4.748c.847.705 1.27 1.058 1.574 1.49.27.383.47.811.592 1.263.137.511.137 1.061.137 2.163v3.669M5.333 2.667h21.333M5.333 29.333h21.333"/>
    </symbol>
    <symbol id="icon-pie-chart1" viewBox="0 0 32 32">
      <path fill="none" stroke="#f9f9f9" stroke-linecap="round" stroke-linejoin="round" stroke-width="3.2" d="M22.933 18.667c.369 0 .554 0 .704.082a.708.708 0 0 1 .293.324c.067.157.05.324.016.659a10.672 10.672 0 0 1-12.694 9.397 10.66 10.66 0 0 1-8.381-8.381 10.666 10.666 0 0 1 9.397-12.694c.334-.034.502-.05.659.016.13.055.257.17.324.293.082.15.082.334.082.704V17.6c0 .373 0 .56.073.703a.665.665 0 0 0 .291.291c.143.073.329.073.703.073h8.533z" opacity=".8" style="stroke:var(--color1, #f9f9f9)"/>
      <path fill="none" stroke="#f9f9f9" stroke-linecap="round" stroke-linejoin="round" stroke-width="3.2" d="M18.667 3.733c0-.369 0-.554.082-.704a.713.713 0 0 1 .324-.293c.157-.067.324-.05.659-.016a10.67 10.67 0 0 1 9.549 9.549c.034.334.05.502-.016.659a.704.704 0 0 1-.293.324c-.15.082-.334.082-.704.082h-8.533c-.373 0-.56 0-.703-.073a.665.665 0 0 1-.291-.291c-.073-.143-.073-.329-.073-.703V3.734z" style="stroke:var(--color1, #f9f9f9)"/>
    </symbol>
    <symbol id="icon-chevron-left" viewBox="0 0 32 32">
      <path d="M14.133 16.947a1.334 1.334 0 0 1 0-1.894l6.12-6.107a1.334 1.334 0 1 0-1.88-1.894l-6.12 6.12a4.001 4.001 0 0 0 0 5.654l6.12 6.12a1.336 1.336 0 0 0 1.88-1.894l-6.12-6.107z"/>
    </symbol>
    <symbol id="icon-chevron-right" viewBox="0 0 32 32">
      <path d="M17.867 16.947a1.334 1.334 0 0 0 0-1.894l-6.12-6.107a1.334 1.334 0 1 1 1.88-1.894l6.12 6.12a4.001 4.001 0 0 1 0 5.654l-6.12 6.12a1.337 1.337 0 0 1-2.172-.434 1.331 1.331 0 0 1 .292-1.46l6.12-6.107z"/>
    </symbol>
    <symbol id="icon-burger" viewBox="0 0 32 32">
      <path fill="none" stroke="#f9f9f9" stroke-linecap="round" stroke-linejoin="round" stroke-width="2.286" d="M4 16h24M4 8h24M12 24h16" style="stroke:var(--color1, #f9f9f9)"/>
    </symbol>
    <symbol id="icon-trash-block" viewBox="0 0 32 32">
      <path fill="#e85050" d="M32 16c0 8.837-7.163 16-16 16S0 24.837 0 16 7.163 0 16 0s16 7.163 16 16z" opacity=".1" style="fill:var(--color8, #e85050)"/>
      <path fill="none" stroke="#e85050" stroke-width="1.143" d="M31.429 16c0 8.521-6.908 15.429-15.429 15.429S.571 24.521.571 16 7.479.571 16 .571 31.429 7.479 31.429 16z" style="stroke:var(--color8, #e85050)"/>
      <path fill="none" stroke="#e85050" stroke-linecap="round" stroke-linejoin="round" stroke-width="1.143" d="M10 12h12m-1.333 0v9.333a1.331 1.331 0 0 1-1.333 1.333h-6.667a1.333 1.333 0 0 1-1.334-1.333V12m2.001 0v-1.333a1.333 1.333 0 0 1 1.333-1.334h2.667a1.33 1.33 0 0 1 1.333 1.334V12m-4.001 3.333v4m2.668-4v4" style="stroke:var(--color8, #e85050)"/>
    </symbol>
    <symbol id="icon-trash" viewBox="0 0 32 32">
      <path fill="none" stroke-linecap="round" stroke-linejoin="round" stroke-width="2.286" d="M4 8h24m-2.667 0v18.667a2.67 2.67 0 0 1-2.667 2.667H9.333a2.668 2.668 0 0 1-2.667-2.667V8m4.001 0V5.333a2.668 2.668 0 0 1 2.667-2.667h5.333a2.668 2.668 0 0 1 2.667 2.667V8m-8.001 6.667v8m5.334-8v8"/>
    </symbol>
    <symbol id="icon-trash-red" viewBox="0 0 32 32">
      <path fill="none" stroke="#e85050" stroke-linecap="round" stroke-linejoin="round" stroke-width="2.286" d="M4 8h24m-2.666 0v18.667a2.67 2.67 0 0 1-2.667 2.667H9.334a2.668 2.668 0 0 1-2.667-2.667V8m4 0V5.333a2.67 2.67 0 0 1 2.667-2.667h5.333a2.668 2.668 0 0 1 2.667 2.667V8m-8.001 6.667v8m5.334-8v8" style="stroke:var(--color8, #e85050)"/>
    </symbol>
    <symbol id="icon-dairy-graph" viewBox="0 0 78 32">
      <path fill="#30b94d" d="M78.222 1.778 1.778 12.382V32h76.444V1.778z" opacity=".2" style="fill:var(--color2, #30b94d)"/>
      <path fill="#30b94d" d="M75.129.284 2.272 12.063a1.778 1.778 0 0 0-1.471 2.039l.05.308a1.778 1.778 0 0 0 2.039 1.471L75.747 4.102a1.778 1.778 0 0 0 1.471-2.039l-.05-.308A1.778 1.778 0 0 0 75.129.284z" style="fill:var(--color2, #30b94d)"/>
    </symbol>
  </defs>
</svg>
